<?xml version="1.0" encoding="UTF-8" standalone="no"?>
<svg
   width="290"
   zoomAndPan="magnify"
   viewBox="0 0 217.47243 222.75"
   height="297"
   preserveAspectRatio="xMidYMid"
   version="1.0"
   id="svg527"
   sodipodi:docname="logo"
   inkscape:version="1.2.2 (732a01da63, 2022-12-09, custom)"
   xmlns:inkscape="http://www.inkscape.org/namespaces/inkscape"
   xmlns:sodipodi="http://sodipodi.sourceforge.net/DTD/sodipodi-0.dtd"
   xmlns="http://www.w3.org/2000/svg"
   xmlns:svg="http://www.w3.org/2000/svg">
  <sodipodi:namedview
     id="namedview529"
     pagecolor="#ffffff"
     bordercolor="#000000"
     borderopacity="0.25"
     inkscape:showpageshadow="2"
     inkscape:pageopacity="0.0"
     inkscape:pagecheckerboard="0"
     inkscape:deskcolor="#d1d1d1"
     showgrid="false"
     inkscape:zoom="1.0396825"
     inkscape:cx="633.84733"
     inkscape:cy="202.46565"
     inkscape:window-width="1526"
     inkscape:window-height="836"
     inkscape:window-x="0"
     inkscape:window-y="0"
     inkscape:window-maximized="1"
     inkscape:current-layer="svg527" />
  <defs
     id="defs29">
    <clipPath
       id="id1">
      <path
         d="M 22.015625,26.191406 H 195.24219 V 200.16797 H 22.015625 Z m 0,0"
         clip-rule="nonzero"
         id="path20" />
    </clipPath>
    <clipPath
       id="id2">
      <path
         d="M 0.75,5.195312 H 216.72266 V 221.16797 H 0.75 Z m 0,0"
         clip-rule="nonzero"
         id="path23" />
    </clipPath>
  </defs>
  <g
     clip-path="url(#id1)"
     id="g33">
    <path
       fill="#ffffff"
       d="M 22.015625,26.191406 H 195.24219 V 200.16797 H 22.015625 V 26.191406"
       fill-opacity="1"
       fill-rule="nonzero"
       id="path31" />
  </g>
  <g
     clip-path="url(#id2)"
     id="g37">
    <path
       fill="#0099cc"
       d="M 4.757812,5.316406 C 2.824219,5.636719 1.191406,7.3125 0.867188,9.300781 0.707031,10.25 0.707031,215.92969 0.859375,217 c 0.300781,2.07422 1.921875,3.71484 3.992187,4.05078 0.984376,0.16016 206.785158,0.16016 207.765628,0 2.04297,-0.32422 3.66406,-1.94531 3.98828,-3.98437 0.16015,-0.98438 0.16015,-206.78516 0,-207.765629 -0.33594,-2.0625 -1.98828,-3.695312 -4.05078,-3.996093 C 211.59375,5.175781 5.585938,5.175781 4.757812,5.316406 Z M 213.32031,7.011719 c 0.73438,0.355469 1.26563,0.894531 1.63281,1.683593 l 0.25782,0.550782 V 217.11719 l -0.25782,0.55078 c -0.36718,0.78906 -0.89843,1.32812 -1.63281,1.6875 l -0.64844,0.30078 H 4.800781 l -0.648437,-0.30078 c -0.734375,-0.35938 -1.265625,-0.89844 -1.632813,-1.6875 L 2.261719,217.11719 V 9.246094 L 2.519531,8.695312 C 2.886719,7.90625 3.417969,7.367188 4.152344,7.011719 L 4.800781,6.707031 H 212.67187 Z m 0,0"
       fill-opacity="1"
       fill-rule="nonzero"
       id="path35" />
  </g>
  <path
     fill="#0099cc"
     d="m 11.65625,113.18359 v 97.1875 h 194.375 V 15.996094 h -194.375 z m 171.375,-77.578121 c 1.12109,0.386719 2.34375,1.371093 2.88281,2.308593 0.59375,1.050782 0.57031,0.746094 0.57031,9.9375 0,9.1875 0.0234,8.886719 -0.57031,9.933594 -0.32422,0.574219 -1.2539,1.488282 -1.85937,1.835938 -1.20703,0.691406 -0.0625,0.648437 -16.27344,0.648437 h -14.76953 v 86.171879 h 14.03515 v 5.61718 h -7.63281 c -8.21875,0 -8.07812,0.008 -9.19922,-0.5625 -1.02734,-0.51953 -1.96484,-1.62109 -2.39843,-2.80859 -0.20704,-0.5625 -0.20704,-1.31641 -0.20704,-45.58203 V 58.097656 l 0.28125,-0.5625 c 0.61719,-1.195312 1.97657,-2.289062 3.34766,-2.65625 0.31641,-0.08594 4.76172,-0.117187 15.15234,-0.117187 h 14.69532 V 41.046875 H 75.261719 v 85.957035 h 54.640621 l 0.72266,0.26953 c 1.48828,0.5625 2.71094,1.91406 3.12109,3.44531 0.11719,0.44141 0.15235,2.16016 0.15235,8.82422 0,8.12109 0,8.28125 -0.22657,8.96094 -0.30468,0.92968 -0.6289,1.44921 -1.30859,2.11718 -0.60547,0.58203 -1.45703,1.08985 -2.20312,1.30469 -0.34375,0.0977 -9.21094,0.13281 -37.945316,0.13281 H 54.699219 l -0.648438,-0.22656 c -0.882812,-0.31641 -1.640625,-0.8125 -2.222656,-1.46875 -0.507813,-0.5625 -1.082031,-1.60156 -1.082031,-1.94531 0,-0.11719 -0.0625,-0.26953 -0.140625,-0.33594 -0.09375,-0.10547 -0.140625,-7.67578 -0.160157,-36.95312 l -0.02344,-36.820316 h -19.4375 V 68.90625 H 41.4375 c 10.042969,0 10.464844,0.01172 11.015625,0.207031 1.566406,0.570313 2.644531,1.683594 3.207031,3.273438 0.140625,0.410156 0.164063,4.707031 0.164063,37.363281 v 36.90625 H 128.17187 V 132.62109 H 100.99219 C 77,132.62109 73.75,132.59766 73.339844,132.45703 72.519531,132.16797 72,131.85156 71.394531,131.29297 c -0.648437,-0.61719 -1.015625,-1.17969 -1.328125,-2.04297 -0.207031,-0.5625 -0.207031,-1.39062 -0.207031,-45.222656 0,-40.195313 0.02344,-44.695313 0.175781,-45.140625 0.550782,-1.574219 1.792969,-2.785157 3.445313,-3.335938 0.214843,-0.06641 19.046875,-0.109375 54.691401,-0.109375 49.01563,-0.0078 54.41797,0.01172 54.85938,0.164063 z M 52.097656,35.863281 c 1.738282,0.59375 2.992188,1.867188 3.507813,3.542969 0.207031,0.648438 0.21875,1.015625 0.21875,5.851562 0,4.828126 -0.01172,5.207032 -0.21875,5.84375 -0.515625,1.695313 -1.855469,3.035157 -3.539063,3.550782 -0.660156,0.207031 -1.015625,0.21875 -8.660156,0.21875 -7.613281,0 -8.003906,-0.01172 -8.652344,-0.21875 -1.695312,-0.515625 -3.035156,-1.855469 -3.550781,-3.539063 -0.207031,-0.648437 -0.21875,-1.015625 -0.21875,-5.855469 0,-4.835937 0.01172,-5.203124 0.21875,-5.851562 0.515625,-1.683594 1.835937,-3.003906 3.539063,-3.554688 0.574218,-0.183593 1.179687,-0.191406 8.671874,-0.191406 7.785157,-0.01172 8.078126,0 8.683594,0.203125 z M 63.761719,159.76562 c 0.472656,0.16407 0.96875,0.34766 1.089843,0.42188 l 0.238282,0.12891 -0.410156,1.02734 c -0.324219,0.80078 -0.457032,1.02734 -0.617188,1.00391 -0.109375,0 -0.605469,-0.16016 -1.113281,-0.34375 -1.542969,-0.5625 -2.515625,-0.42188 -3.421875,0.47265 -0.433594,0.44531 -0.59375,0.70313 -0.765625,1.25391 -0.304688,0.98437 -0.378907,1.97656 -0.238281,3.02344 0.195312,1.45703 0.636718,2.22656 1.566406,2.72265 0.777344,0.42188 2.785156,0.28125 4.296875,-0.30469 0.160156,-0.0742 0.183593,0.0234 0.183593,1.07032 0,1.29687 0.04297,1.21875 -1.027343,1.51172 -0.90625,0.25 -2.65625,0.33593 -3.539063,0.18359 -1.976562,-0.34375 -3.253906,-1.45703 -3.921875,-3.42188 -0.378906,-1.11328 -0.484375,-3.3164 -0.214843,-4.57812 0.472656,-2.28125 1.996093,-3.89844 4.101562,-4.38672 1.015625,-0.22656 2.722656,-0.12891 3.792969,0.21484 z m 38.550781,0 c 0.47266,0.16407 0.96875,0.34766 1.08984,0.42188 l 0.23829,0.12891 -0.41016,1.02734 c -0.32422,0.80078 -0.45703,1.02734 -0.61719,1.00391 -0.10937,0 -0.60547,-0.16016 -1.11328,-0.34375 -1.542969,-0.5625 -2.515625,-0.42188 -3.421875,0.47265 -0.433594,0.44531 -0.59375,0.70313 -0.765625,1.25391 -0.304688,0.98437 -0.378906,1.97656 -0.238281,3.02344 0.195312,1.45703 0.636719,2.22656 1.566406,2.72265 0.777344,0.42188 2.785155,0.28125 4.296875,-0.30469 0.16016,-0.0742 0.18359,0.0234 0.18359,1.07032 0,1.29687 0.043,1.21875 -1.02734,1.51172 -0.90625,0.25 -2.65625,0.33593 -3.539062,0.18359 -1.976563,-0.34375 -3.253907,-1.45703 -3.921876,-3.42188 -0.378906,-1.11328 -0.484374,-3.3164 -0.214843,-4.57812 0.472656,-2.28125 1.996093,-3.89844 4.101562,-4.38672 1.015625,-0.22656 2.722659,-0.12891 3.792969,0.21484 z m -11.730469,5.05469 c 1.039063,2.92578 2.019531,5.70313 2.183594,6.16797 l 0.3125,0.83984 -1.480469,-0.0312 -1.476562,-0.0312 -0.421875,-1.4375 -0.433594,-1.42578 h -4.339844 l -0.433593,1.45703 -0.429688,1.46094 h -1.425781 c -0.789063,0 -1.4375,-0.0352 -1.4375,-0.0898 0,-0.043 0.960937,-2.80469 2.128906,-6.15235 l 2.136719,-6.07031 h 3.25 z m 23.433599,0 c 1.03906,2.92578 2.01953,5.70313 2.18359,6.16797 l 0.3125,0.83984 -2.96094,-0.0625 -0.41797,-1.4375 -0.43359,-1.42578 h -4.33984 l -0.4336,1.45703 -0.42969,1.46094 h -1.42578 c -0.78906,0 -1.4375,-0.0352 -1.4375,-0.0898 0,-0.043 0.96094,-2.80469 2.12891,-6.15235 l 2.13672,-6.07031 h 3.25 z m -61.000005,0.89844 v 6.10156 h -2.699219 v -12.20312 h 2.699219 z m 22.675781,-5.02344 v 1.08203 H 72.34375 v 10.04297 H 69.644531 V 161.77734 H 66.40625 v -2.16015 h 9.285156 z m 48.464844,-0.91797 c 2.03125,0.47657 3.55469,1.95703 4.07031,3.94141 0.25,0.91797 0.25,2.82031 0.0117,3.82422 -0.3789,1.58594 -1.38281,2.88281 -2.80859,3.57422 -1.1875,0.59375 -1.92188,0.70312 -4.73047,0.70312 h -2.46094 v -12.20312 h 2.625 c 1.92188,0 2.79688,0.043 3.29297,0.16015 z m 14.27734,0.91797 v 1.08203 h -4.42968 v 2.58985 h 4.10546 v 2.26953 h -4.10546 v 3.02344 h 4.42968 v 2.16015 h -7.1289 v -12.20312 h 7.1289 z m 7.81641,3.45703 c 0.77734,2.49219 1.4375,4.50391 1.48047,4.46094 0.043,-0.0547 0.73437,-2.08594 1.52344,-4.51562 l 1.44531,-4.42579 1.85937,-0.0352 1.85547,-0.0195 v 12.20312 h -2.625 l 0.0547,-4.61328 0.0547,-4.60937 -1.51172,4.60937 -1.52344,4.61328 h -2.49219 l -1.40625,-4.58203 -1.41406,-4.58594 0.043,4.58594 0.043,4.58203 h -2.39844 v -12.20312 h 3.62109 z m 14.08203,-2.08593 1.23047,2.45312 1.25391,-2.45312 1.25,-2.44922 h 1.4375 c 0.78906,0 1.4375,0.0195 1.4375,0.043 0,0.0195 -0.89844,1.68359 -2,3.71484 l -1.9961,3.67969 v 4.76562 h -2.69922 v -4.64453 l -1.95312,-3.62891 c -1.07031,-1.98828 -1.97656,-3.6914 -2.01172,-3.78125 -0.043,-0.1289 0.18359,-0.14843 1.39453,-0.14843 h 1.4375 z m -40.375,16.63281 c 0.25781,0.65625 4.4375,11.91797 4.4375,11.96484 0,0.0312 -0.49609,0.0508 -1.10156,0.0508 h -1.11328 l -0.59375,-1.65234 -0.59375,-1.64063 -2.28906,-0.0312 -2.27735,-0.0234 -0.17187,0.45312 c -0.0977,0.26172 -0.36719,0.9961 -0.59766,1.65235 l -0.41797,1.1914 -1.10156,0.0312 c -1.01563,0.0195 -1.10156,0.0117 -1.05859,-0.16406 0.043,-0.14063 3.74609,-10.11719 4.41406,-11.88672 0.0898,-0.22656 0.15234,-0.23828 1.22265,-0.23828 h 1.1211 z m 42.4375,0 c 0.25781,0.65625 4.4375,11.91797 4.4375,11.96484 0,0.0312 -0.49609,0.0508 -1.10156,0.0508 h -1.11328 l -0.59375,-1.65234 -0.59375,-1.64063 -2.28907,-0.0312 -2.27734,-0.0234 -0.17187,0.45312 c -0.0977,0.26172 -0.36719,0.9961 -0.59375,1.65235 l -0.42188,1.1914 -1.10156,0.0312 c -1.01563,0.0195 -1.10156,0.0117 -1.0586,-0.16406 0.043,-0.14063 3.7461,-10.11719 4.41797,-11.88672 0.0859,-0.22656 0.14844,-0.23828 1.21875,-0.23828 h 1.125 z m -109.898436,2.61328 0.03516,2.79687 4.726562,-5.59375 H 58.4375 c 0.636719,0 1.164062,0.0195 1.164062,0.0508 0,0.0352 -1.015624,1.24218 -2.246093,2.67968 l -2.257813,2.625 1.675782,2.41797 c 0.917968,1.33985 1.976562,2.88281 2.355468,3.42188 l 0.691406,1.0039 H 57.34375 l -1.867188,-2.69922 c -1.023437,-1.47656 -1.890624,-2.69921 -1.921874,-2.69921 -0.03125,0 -0.28125,0.19531 -0.5625,0.4414 l -0.515626,0.44531 v 4.51172 h -2.160156 v -12.19922 h 2.160156 z m 26.652344,-1.93359 v 0.86328 h -4.859376 v 3.23828 h 4.535157 v 1.72656 h -4.535157 v 3.78125 h 4.859376 v 1.72656 h -7.019532 v -12.19922 h 7.019532 z m 19.554687,-0.5625 c 0.898437,0.35546 1.406255,0.76562 1.773435,1.4375 0.25782,0.48437 0.32422,0.73437 0.35547,1.51171 0.0742,1.5625 -0.43359,2.54688 -1.664061,3.25 -0.496094,0.26954 -0.5625,0.34375 -0.472657,0.51563 0.05078,0.10937 0.765626,1.23437 1.562498,2.48437 0.80078,1.25391 1.51172,2.375 1.56641,2.4961 0.10937,0.19531 0.0664,0.20312 -1.06641,0.20312 h -1.191404 l -1.433594,-2.40625 -1.449218,-2.39843 -0.9375,-0.0312 -0.941406,-0.0312 v 4.86718 h -2.160157 v -12.22265 l 2.734375,0.043 c 2.515625,0.0312 2.765625,0.0547 3.324219,0.28125 z M 138.97266,183.75 v 5.23828 h 5.18359 v 1.72656 h -7.34375 v -12.19922 h 2.16016 z m 0,0"
     fill-opacity="1"
     fill-rule="nonzero"
     id="path39" />
  <path
     fill="#0099cc"
     d="M 36.386719,45.257812 V 49.46875 H 50.421875 V 41.046875 H 36.386719 Z m 0,0"
     fill-opacity="1"
     fill-rule="nonzero"
     id="path41" />
  <path
     fill="#0099cc"
     d="m 86.351562,164.22656 c -0.402343,1.33985 -0.714843,2.45313 -0.691406,2.48438 0.01953,0.0234 0.703125,0.0234 1.5,0.0117 l 1.46875,-0.0352 -0.753906,-2.42969 c -0.414062,-1.32812 -0.757812,-2.42969 -0.769531,-2.4375 -0.0078,-0.0234 -0.355469,1.06641 -0.753907,2.40625 z m 0,0"
     fill-opacity="1"
     fill-rule="nonzero"
     id="path43" />
  <path
     fill="#0099cc"
     d="m 109.78516,164.22656 c -0.40235,1.33985 -0.71485,2.45313 -0.69141,2.48438 0.0195,0.0234 0.69922,0.0234 1.5,0.0117 l 1.46875,-0.0352 -0.75781,-2.42969 c -0.41016,-1.32812 -0.75391,-2.42969 -0.76563,-2.4375 -0.0117,-0.0234 -0.35547,1.06641 -0.7539,2.40625 z m 0,0"
     fill-opacity="1"
     fill-rule="nonzero"
     id="path45" />
  <path
     fill="#0099cc"
     d="m 120.9375,165.71875 v 3.97266 l 1.05859,-0.0664 c 1.27344,-0.0742 1.91407,-0.27734 2.53907,-0.82813 0.86328,-0.76953 1.29687,-2.36718 1.05859,-3.95312 -0.3125,-2.14844 -1.22266,-2.9375 -3.48828,-3.04688 l -1.16797,-0.0547 z m 0,0"
     fill-opacity="1"
     fill-rule="nonzero"
     id="path47" />
  <path
     fill="#0099cc"
     d="m 117.91406,182.92969 c -0.4414,1.32812 -0.82031,2.45312 -0.83984,2.50781 -0.0234,0.0508 0.69922,0.0937 1.65234,0.0937 1.57422,0 1.69532,-0.008 1.61719,-0.19141 -0.043,-0.0977 -0.42187,-1.23047 -0.85156,-2.50781 l -0.76563,-2.32031 z m 0,0"
     fill-opacity="1"
     fill-rule="nonzero"
     id="path49" />
  <path
     fill="#0099cc"
     d="m 160.35547,182.92969 c -0.44531,1.32812 -0.82422,2.45312 -0.84375,2.50781 -0.0234,0.0508 0.70312,0.0937 1.65234,0.0937 1.57422,0 1.69531,-0.008 1.6211,-0.19141 -0.0469,-0.0977 -0.42188,-1.23047 -0.85547,-2.50781 l -0.76563,-2.32031 z m 0,0"
     fill-opacity="1"
     fill-rule="nonzero"
     id="path51" />
  <path
     fill="#0099cc"
     d="m 94.804688,182.18359 v 1.96875 l 1.222656,-0.043 c 0.972656,-0.0352 1.304687,-0.0898 1.703125,-0.28125 0.640625,-0.3164 0.964843,-0.86718 0.964843,-1.65234 0,-1.35156 -0.691406,-1.83594 -2.667968,-1.91406 l -1.222656,-0.0508 z m 0,0"
     fill-opacity="1"
     fill-rule="nonzero"
     id="path53" />
  <g
     fill="#000000"
     fill-opacity="1"
     id="g147">
    <g
       transform="translate(554.35744,57.157033)"
       id="g145">
      <g
         id="g143" />
    </g>
  </g>
  <g
     fill="#000000"
     fill-opacity="1"
     id="g161">
    <g
       transform="translate(602.36874,57.157033)"
       id="g159">
      <g
         id="g157" />
    </g>
  </g>
  <g
     fill="#000000"
     fill-opacity="1"
     id="g271">
    <g
       transform="translate(633.3841,108.90046)"
       id="g269">
      <g
         id="g267" />
    </g>
  </g>
  <g
     fill="#000000"
     fill-opacity="1"
     id="g415">
    <g
       transform="translate(442.25914,160.64388)"
       id="g413">
      <g
         id="g411" />
    </g>
  </g>
  <g
     fill="#000000"
     fill-opacity="1"
     id="g437">
    <g
       transform="translate(514.82999,160.64388)"
       id="g435">
      <g
         id="g433" />
    </g>
  </g>
</svg>
